{
  "accessors": [
    {
      "bufferView": 0,
      "componentType": 5123,
      "type": "SCALAR",
      "count": 522
    },
    {
      "bufferView": 1,
      "componentType": 5126,
      "type": "VEC3",
      "count": 348,
      "min": [0, 1, 0],
      "max": [6, 2, 8]
    },
    {
      "bufferView": 1,
      "componentType": 5126,
      "type": "VEC3",
      "byteOffset": 12,
      "count": 348
    },
    {
      "bufferView": 1,
      "componentType": 5121,
      "type": "VEC4",
      "normalized": true,
      "byteOffset": 24,
      "count": 348
    },
    {
      "bufferView": 2,
      "componentType": 5123,
      "type": "SCALAR",
      "count": 390
    },
    {
      "bufferView": 3,
      "componentType": 5126,
      "type": "VEC3",
      "count": 260,
      "min": [12, 1, 0],
      "max": [16, 2, 8]
    },
    {
      "bufferView": 3,
      "componentType": 5126,
      "type": "VEC3",
      "byteOffset": 12,
      "count": 260
    },
    {
      "bufferView": 3,
      "componentType": 5121,
      "type": "VEC4",
      "normalized": true,
      "byteOffset": 24,
      "count": 260
    },
    {
      "bufferView": 4,
      "componentType": 5123,
      "type": "SCALAR",
      "count": 534
    },
    {
      "bufferView": 5,
      "componentType": 5126,
      "type": "VEC3",
      "count": 356,
      "min": [0, 1, 0],
      "max": [7, 2, 8]
    },
    {
      "bufferView": 5,
      "componentType": 5126,
      "type": "VEC3",
      "byteOffset": 12,
      "count": 356
    },
    {
      "bufferView": 5,
      "componentType": 5121,
      "type": "VEC4",
      "normalized": true,
      "byteOffset": 24,
      "count": 356
    },
    {
      "bufferView": 6,
      "componentType": 5123,
      "type": "SCALAR",
      "count": 402
    },
    {
      "bufferView": 7,
      "componentType": 5126,
      "type": "VEC3",
      "count": 268,
      "min": [11, 1, 0],
      "max": [16, 2, 8]
    },
    {
      "bufferView": 7,
      "componentType": 5126,
      "type": "VEC3",
      "byteOffset": 12,
      "count": 268
    },
    {
      "bufferView": 7,
      "componentType": 5121,
      "type": "VEC4",
      "normalized": true,
      "byteOffset": 24,
      "count": 268
    }
  ],
  "asset": {
    "generator": "goxel",
    "version": "2.0"
  },
  "bufferViews": [
    {
      "buffer": 1,
      "byteLength": 1044
    },
    {
      "buffer": 0,
      "byteLength": 11136,
      "byteStride": 32
    },
    {
      "buffer": 3,
      "byteLength": 780
    },
    {
      "buffer": 2,
      "byteLength": 8320,
      "byteStride": 32
    },
    {
      "buffer": 5,
      "byteLength": 1068
    },
    {
      "buffer": 4,
      "byteLength": 11392,
      "byteStride": 32
    },
    {
      "buffer": 7,
      "byteLength": 804
    },
    {
      "buffer": 6,
      "byteLength": 8576,
      "byteStride": 32
    }
  ],
  "buffers": [
    {
      "uri": "data:application/octet-stream;base64,",
      "byteLength": 11136
    },
    {
      "uri": "data:application/octet-stream;base64,",
      "byteLength": 1044
    },
    {
      "uri": "data:application/octet-stream;base64,",
      "byteLength": 8320
    },
    {
      "uri": "data:application/octet-stream;base64,",
      "byteLength": 780
    },
    {
      "uri": "data:application/octet-stream;base64,",
      "byteLength": 11392
    },
    {
      "uri": "data:application/octet-stream;base64,",
      "byteLength": 1068
    },
    {
      "uri": "data:application/octet-stream;base64,",
      "byteLength": 8576
    },
    {
      "uri": "data:application/octet-stream;base64,",
      "byteLength": 804
    }
  ],
  "meshes": [
    {
      "primitives": [
        {
          "indices": 0,
          "material": 0,
          "attributes": {
            "POSITION": 1,
            "NORMAL": 2,
            "COLOR_0": 3
          }
        }
      ]
    },
    {
      "primitives": [
        {
          "indices": 4,
          "material": 0,
          "attributes": {
            "POSITION": 5,
            "NORMAL": 6,
            "COLOR_0": 7
          }
        }
      ]
    },
    {
      "primitives": [
        {
          "indices": 8,
          "material": 0,
          "attributes": {
            "POSITION": 9,
            "NORMAL": 10,
            "COLOR_0": 11
          }
        }
      ]
    },
    {
      "primitives": [
        {
          "indices": 12,
          "material": 0,
          "attributes": {
            "POSITION": 13,
            "NORMAL": 14,
            "COLOR_0": 15
          }
        }
      ]
    }
  ],
  "materials": [
    {
      "name": "Material.1",
      "pbrMetallicRoughness": {
        "metallicFactor": 0.200000003,
        "roughnessFactor": 0.300000012
      }
    }
  ],
  "nodes": [
    {
      "children": [ 3, 6 ],
      "matrix": [1, 0, 0, 0, 0, 0, -1, 0, 0, 1, 0, 0, 0, 0, 0, 1]
    },
    {
      "mesh": 0,
      "translation": [0, 0, 0]
    },
    {
      "mesh": 1,
      "translation": [-16, 0, 0]
    },
    {
      "children": [ 1, 2 ]
    },
    {
      "mesh": 2,
      "translation": [0, 0, 0]
    },
    {
      "mesh": 3,
      "translation": [-16, 0, 0]
    },
    {
      "children": [ 4, 5 ]
    }
  ],
  "scenes": [
    {
      "nodes": [ 0 ]
    }
  ]
}
